<mxfile host="app.diagrams.net" modified="2021-10-22T14:15:30.708Z" agent="5.0 (Windows)" etag="tEZXM7QaNIOxhAezDE6R" version="15.5.8" type="github">
  <diagram id="KyqnOpeTAdn-FWM6JekI" name="Page-1">
    <mxGraphModel dx="868" dy="399" grid="1" gridSize="10" guides="1" tooltips="1" connect="1" arrows="1" fold="1" page="1" pageScale="1" pageWidth="850" pageHeight="1100" math="0" shadow="0">
      <root>
        <mxCell id="0" />
        <mxCell id="1" parent="0" />
      </root>
    </mxGraphModel>
  </diagram>
</mxfile>
